<svg width="60" height="30" preserveAspectRatio="xMidYMid" version="1.0" viewBox="0 0 60 30" xmlns="http://www.w3.org/2000/svg"><rect width="60" height="30" ry=".74971" fill="#fff" stroke-width=".74985"/><g transform="matrix(.054743 0 0 -.054722 -41.531 424)" fill="#444242"><g transform="translate(-36.535)" stroke-width=".041047"><path d="m1096.3 7642.8c-11.575-0.7389-24.874-2.4628-34.685-4.4741-5.3771-1.1083-13.381-3.1196-15.27-3.8584l-1.1493-0.4516v-57.466h4.2279c3.1195 0 4.8846 0.2052 6.5264 0.7798 6.937 2.3808 21.96 5.6235 31.729 6.8549 7.7989 0.9851 20.606 0.9851 26.27-0.041 15.27-2.6681 23.602-9.1124 26.968-20.934 0.7799-2.7911 0.9031-4.3099 0.9441-9.8512 0-7.2243-0.4515-10.221-2.3398-16.008-3.4067-10.139-8.8249-18.02-23.93-34.48-13.34-14.572-19.867-24.259-24.587-36.45-5.0898-13.053-6.7317-24.012-7.1012-46.999l-0.2462-14.859 31.155 0.083 31.154 0.1231 0.2462 11.083c0.4105 17.568 2.2165 26.106 7.7169 36.614 4.433 8.4146 8.6198 13.71 21.509 27.296 12.601 13.34 17.609 19.538 22.863 28.24 9.6462 15.967 14.202 34.562 13.381 54.675-0.9441 23.725-8.1683 41.458-22.453 55.126-14.366 13.71-33.494 21.344-61.324 24.423-4.1047 0.4515-26.927 0.862-31.606 0.5747z"/><path d="m1105.1 7381.8c-17.363-3.6942-27.83-16.747-28.61-35.793-1.0262-24.628 14.079-40.595 38.461-40.595 19.99 0 34.028 10.631 37.886 28.733 1.0673 5.0488 1.1083 14.284 0.1232 19.005-3.3659 15.639-13.094 25.49-28.363 28.651-4.9667 1.0262-14.572 1.0262-19.497 0z"/></g><g stroke-width=".041047"><path d="m1274.5 7642.8c-11.575-0.7389-24.874-2.4628-34.685-4.4741-5.3772-1.1083-13.381-3.1196-15.27-3.8584l-1.1494-0.4516v-57.466h4.2279c3.1195 0 4.8845 0.2052 6.5265 0.7798 6.8548 2.3397 22.206 5.7056 31.565 6.8549 7.6758 0.9851 20.934 0.9441 26.434 0 15.311-2.7091 23.725-9.2767 26.968-21.139 0.7388-2.6269 0.903-4.2278 0.862-10.303 0-6.4034-0.1232-7.6347-1.0262-11.083-3.448-12.807-8.1273-20.072-24.916-38.502-8.3325-9.1534-11.945-13.628-15.68-19.251-7.1832-10.877-11.534-21.591-13.915-34.192-1.6008-8.3326-2.0933-15.023-2.3396-30.293l-0.2463-14.859 31.155 0.081 31.155 0.1232 0.2463 11.288c0.2873 11.575 0.821 16.542 2.4218 22.658 3.489 13.217 9.4408 22.74 23.602 37.681 14.531 15.311 17.979 19.374 23.643 27.871 9.6461 14.449 14.367 28.815 15.639 47.327 1.2314 18.758-2.2166 36.491-9.8103 50.159-5.6235 10.016-14.325 19.087-24.259 25.244-13.176 8.1683-28.569 12.93-49.544 15.228-4.1047 0.4516-26.927 0.8621-31.606 0.5747z"/><path d="m1283.3 7381.7c-17.363-3.6942-27.789-16.624-28.61-35.506-0.3694-8.8661 1.0262-15.926 4.4742-22.371 6.4032-12.027 18.266-18.471 33.987-18.471 20.277 0 34.028 10.631 37.968 29.348 0.862 3.9406 0.9851 13.053 0.2463 17.158-2.7502 15.967-12.971 26.64-28.569 29.882-5.0078 1.0262-14.572 1.0262-19.497-0.041z"/></g><g transform="translate(36.535)"><path d="m1450.5 7642.7c-15.914-1.1742-32.8-3.8874-44.502-7.2483l-3.8874-1.1339-0.1214-28.791-0.082-28.831h4.009c3.5229 0 4.7377 0.2024 10.204 1.7817 24.013 6.8838 44.907 8.4226 60.295 4.4948 1.4577-0.3645 4.5353-1.5793 6.8839-2.7131 7.4507-3.604 12.148-9.3136 14.213-17.291 2.2272-8.4631 1.1338-20.044-2.7941-29.196-3.9684-9.3135-9.1111-16.319-23.324-31.828-10.204-11.095-16.197-19.478-20.895-29.115-7.5722-15.509-10.123-30.046-10.123-57.582v-10.65h61.955v2.7536c0.04 6.9244 0.8504 20.935 1.4173 24.579 1.6196 10.65 5.7095 20.409 12.553 29.965 3.2394 4.4948 5.9119 7.5723 15.59 17.817 13.484 14.254 18.708 20.854 24.215 30.451 5.912 10.407 9.5563 21.542 11.5 35.148 0.8099 5.507 0.648 22.312-0.243 28.305-4.1303 28.143-19.072 48.066-44.462 59.242-10.488 4.6163-22.717 7.6533-37.375 9.273-6.8029 0.7289-27.778 1.0528-35.027 0.5669z" stroke-width=".040493"/><path d="m1465 7383.3c-5.8286-0.862-11.78-3.1605-16.624-6.4443-6.8959-4.6794-12.15-13.135-14.079-22.658-0.7799-3.7353-0.862-5.254-0.6978-11.288 0.1642-5.213 0.4104-7.7579 1.0262-10.098 4.4331-16.583 17.158-26.475 35.177-27.337 17.773-0.8621 31.77 6.6906 38.174 20.565 2.9965 6.4443 4.351 15.187 3.53 23.068-1.0671 10.672-4.6792 18.512-11.493 24.874-5.0488 4.7614-11.78 7.922-19.538 9.1534-3.9406 0.6567-11.657 0.7388-15.475 0.1641z" stroke-width=".041047"/></g></g></svg>
