<?xml version="1.0" encoding="UTF-8"?>
<!DOCTYPE svg PUBLIC "-//W3C//DTD SVG 1.1//EN" "http://www.w3.org/Graphics/SVG/1.1/DTD/svg11.dtd">
<!-- Creator: CorelDRAW X5 -->
<svg xmlns="http://www.w3.org/2000/svg" xml:space="preserve" width="100mm" height="100mm" style="shape-rendering:geometricPrecision; text-rendering:geometricPrecision; image-rendering:optimizeQuality; fill-rule:evenodd; clip-rule:evenodd"
viewBox="0 0 100 100"
 xmlns:xlink="http://www.w3.org/1999/xlink">
 <defs>
  <style type="text/css">
   <![CDATA[
    .str1 {stroke:black;stroke-width:0.0762}
    .str2 {stroke:black;stroke-width:0.0922}
    .str0 {stroke:black;stroke-width:0.762}
    .fil2 {fill:none}
    .fil4 {fill:black}
    .fil1 {fill:#E6E6E6}
    .fil0 {fill:white}
    .fil3 {fill:black;fill-rule:nonzero}
   ]]>
  </style>
 </defs>
 <g id="Warstwa_x0020_1">
  <metadata id="CorelCorpID_0Corel-Layer"/>
  <g id="_275945616">
   <circle id="_278172960" class="fil0 str0" cx="50" cy="50" r="47.5828"/>
   <circle id="_278172864" class="fil1 str0" cx="50" cy="50" r="40.5497"/>
   <path id="_278172720" class="fil2" d="M49.9414 77.9264c-15.2349,0 -27.5853,-12.3504 -27.5853,-27.5853 0,-15.2349 12.3504,-27.5853 27.5853,-27.5853 15.2349,0 27.5853,12.3504 27.5853,27.5853 0,15.2349 -12.3504,27.5853 -27.5853,27.5853z"/>
   <path id="_278172576" class="fil3" d="M27.4466 26.1913l3.6638 2.2306 -1.5763 -4.019c-0.0837,-0.2116 -0.1388,-0.3607 -0.1641,-0.4481 -0.0275,-0.0875 -0.0302,-0.1829 -0.01,-0.2882 0.0193,-0.1045 0.084,-0.2031 0.1942,-0.2956 0.08,-0.0671 0.1718,-0.1091 0.2735,-0.1263 0.1027,-0.0181 0.2012,-0.0104 0.2963,0.024 0.0942,0.0332 0.1699,0.0839 0.2271,0.152 0.039,0.0465 0.0742,0.1017 0.1066,0.1666 0.0335,0.064 0.0608,0.1295 0.0849,0.1978 0.0251,0.0673 0.0501,0.1365 0.078,0.2071l1.4218 3.9774c0.056,0.15 0.1085,0.2939 0.1564,0.4323 0.0471,0.1374 0.0778,0.2682 0.0919,0.3926 0.0144,0.1225 -0.0015,0.2463 -0.0464,0.3705 -0.046,0.1253 -0.1322,0.2399 -0.2586,0.346 -0.1265,0.1061 -0.2544,0.1711 -0.3837,0.1948 -0.1293,0.0237 -0.255,0.0188 -0.3771,-0.017 -0.1219,-0.0377 -0.2465,-0.0896 -0.3736,-0.1598 -0.1261,-0.0691 -0.2587,-0.1459 -0.3957,-0.2279l-3.6299 -2.0804c-0.0647,-0.0397 -0.1306,-0.0765 -0.1945,-0.1131 -0.0649,-0.0358 -0.1283,-0.0784 -0.194,-0.1282 -0.0659,-0.0498 -0.1149,-0.0952 -0.1512,-0.1384 -0.0898,-0.107 -0.1291,-0.2416 -0.117,-0.4028 0.0121,-0.1612 0.0841,-0.2972 0.2148,-0.4069 0.1601,-0.1343 0.3143,-0.1809 0.4639,-0.1387 0.1485,0.043 0.3481,0.1426 0.5989,0.2987zm7.4027 -6.044c0.5607,-0.2857 1.0987,-0.4173 1.617,-0.3947 0.517,0.0232 0.9852,0.19 1.4047,0.5036 0.4195,0.3136 0.7731,0.7527 1.0613,1.3184 0.2127,0.4174 0.349,0.8246 0.4101,1.2243 0.0604,0.3984 0.0431,0.7809 -0.0557,1.1464 -0.0988,0.3655 -0.2793,0.6982 -0.5396,0.9987 -0.262,0.2998 -0.6053,0.5586 -1.0303,0.7751 -0.4224,0.2153 -0.8354,0.3402 -1.2396,0.3735 -0.4024,0.034 -0.7795,-0.0162 -1.1295,-0.1497 -0.3499,-0.1337 -0.6709,-0.3471 -0.9627,-0.6371 -0.2919,-0.29 -0.5407,-0.6383 -0.7469,-1.0431 -0.2114,-0.4149 -0.3464,-0.8259 -0.4032,-1.2325 -0.0573,-0.4079 -0.035,-0.7899 0.0677,-1.1478 0.102,-0.3592 0.2813,-0.685 0.5403,-0.9784 0.2584,-0.2948 0.5941,-0.5466 1.0064,-0.7567zm2.9704 1.9848c-0.2018,-0.3961 -0.4402,-0.7054 -0.7151,-0.931 -0.2756,-0.2239 -0.57,-0.351 -0.8832,-0.3783 -0.312,-0.0279 -0.6214,0.0362 -0.9294,0.1932 -0.2188,0.1114 -0.3988,0.2555 -0.5432,0.432 -0.1425,0.1771 -0.2413,0.3779 -0.2958,0.6036 -0.0532,0.225 -0.0563,0.48 -0.01,0.7637 0.0476,0.283 0.1489,0.5781 0.3039,0.8824 0.1564,0.3068 0.3368,0.5648 0.5398,0.7734 0.2041,0.2079 0.4186,0.3584 0.6427,0.4501 0.224,0.0916 0.4484,0.1309 0.6729,0.1179 0.224,-0.0112 0.4456,-0.0734 0.6643,-0.1848 0.2804,-0.1429 0.5011,-0.344 0.665,-0.6034 0.164,-0.2593 0.2399,-0.5704 0.2289,-0.9338 -0.009,-0.3628 -0.123,-0.7576 -0.3408,-1.185zm4.2157 -3.8888l0.9171 4.3145 2.4346 -0.5175c0.1933,-0.0411 0.3523,-0.0258 0.4761,0.0474 0.1248,0.0716 0.2011,0.1794 0.2313,0.3216 0.0311,0.1463 0.005,0.2745 -0.0778,0.3872 -0.0831,0.1114 -0.2238,0.189 -0.4198,0.2307l-2.8997 0.6163c-0.2609,0.0555 -0.4623,0.0376 -0.6016,-0.0539 -0.1392,-0.0916 -0.2356,-0.2672 -0.2905,-0.5254l-0.9704 -4.5657c-0.0514,-0.2415 -0.0349,-0.4354 0.0483,-0.58 0.0833,-0.1447 0.2138,-0.2359 0.3919,-0.2738 0.1795,-0.0381 0.3383,-0.0098 0.4756,0.0864 0.1374,0.0964 0.233,0.2679 0.2849,0.5122zm9.4846 3.8957l-0.276 -0.7654 -2.4632 -0.043 -0.3028 0.7723c-0.1196,0.3013 -0.2191,0.5042 -0.3014,0.6087 -0.0808,0.1044 -0.2129,0.1557 -0.3949,0.1525 -0.1538,-0.0027 -0.2897,-0.0615 -0.4062,-0.1764 -0.1166,-0.115 -0.1736,-0.2444 -0.1711,-0.3883 0.0015,-0.0819 0.0171,-0.1676 0.0454,-0.2546 0.0297,-0.0884 0.0771,-0.2104 0.1433,-0.3659l1.6191 -3.9077c0.0457,-0.1121 0.1018,-0.2466 0.1665,-0.4036 0.0649,-0.1583 0.1321,-0.2883 0.2045,-0.3915 0.0723,-0.1032 0.167,-0.1862 0.2824,-0.2491 0.1154,-0.0629 0.257,-0.0929 0.4249,-0.09 0.1707,0.003 0.3126,0.038 0.4257,0.1049 0.1132,0.0669 0.2048,0.1517 0.2736,0.2545 0.0674,0.1028 0.1247,0.2139 0.1721,0.3319 0.0458,0.1179 0.1038,0.2755 0.1752,0.4716l1.5147 3.9383c0.119,0.2999 0.1772,0.5169 0.1748,0.6523 -0.0024,0.1396 -0.0639,0.267 -0.183,0.382 -0.1192,0.1151 -0.2613,0.1719 -0.4263,0.169 -0.096,-0.0017 -0.1789,-0.02 -0.2474,-0.0565 -0.0685,-0.0351 -0.1256,-0.0826 -0.1711,-0.1427 -0.0455,-0.0601 -0.0947,-0.1527 -0.1462,-0.2763 -0.0514,-0.1237 -0.0962,-0.2317 -0.1326,-0.327zm-2.4015 -1.724l1.8115 0.0316 -0.8706 -2.516 -0.9409 2.4844zm8.0914 0.9034l-1.1001 -0.2338 -0.3567 1.6784c-0.0511,0.2402 -0.1461,0.4089 -0.2857,0.509 -0.1396,0.1002 -0.2963,0.1318 -0.4688,0.0952 -0.1794,-0.0382 -0.3128,-0.13 -0.3972,-0.2764 -0.0843,-0.1462 -0.101,-0.3388 -0.0508,-0.5748l0.9713 -4.5698c0.056,-0.2636 0.157,-0.4398 0.3024,-0.5272 0.1455,-0.0873 0.3494,-0.1032 0.6145,-0.0468l1.5403 0.3274c0.4554,0.0968 0.7972,0.2055 1.028,0.3282 0.2285,0.1192 0.4145,0.2756 0.5581,0.4691 0.1432,0.1949 0.2366,0.4138 0.2795,0.6595 0.0444,0.246 0.0357,0.5111 -0.0245,0.794 -0.1285,0.6046 -0.4119,1.0217 -0.8494,1.2548 -0.4387,0.2313 -1.0254,0.2696 -1.7609,0.1132zm0.2863 -2.7795l-0.8087 -0.1719 -0.3852 1.8122 0.8087 0.1719c0.283,0.0602 0.5252,0.0814 0.7282,0.0625 0.2017,-0.0192 0.3675,-0.0864 0.4967,-0.1988 0.1281,-0.1141 0.2154,-0.2802 0.2617,-0.4983 0.0558,-0.2623 0.0237,-0.4913 -0.0944,-0.6894 -0.1352,-0.212 -0.4715,-0.3743 -1.007,-0.4882zm4.1994 4.0585l1.3235 -2.5974c0.1121,-0.22 0.247,-0.3603 0.4027,-0.4203 0.1556,-0.0601 0.3146,-0.0488 0.4768,0.0339 0.1685,0.0858 0.2748,0.2097 0.3177,0.3709 0.043,0.1612 0.0087,0.3528 -0.1034,0.5728l-1.3536 2.6565c-0.1537,0.3018 -0.2486,0.5718 -0.2838,0.8088 -0.0365,0.2364 0.0029,0.4544 0.1182,0.6541 0.1152,0.1996 0.3271,0.3773 0.6364,0.5349 0.4275,0.2178 0.7868,0.2584 1.0801,0.1212 0.2931,-0.1373 0.5567,-0.4369 0.7918,-0.8984l1.3645 -2.6779c0.1133,-0.2225 0.2476,-0.3647 0.4014,-0.4242 0.1537,-0.0594 0.3133,-0.0462 0.478,0.0377 0.1635,0.0833 0.2692,0.2053 0.3153,0.3665 0.0461,0.1613 0.0124,0.3549 -0.1009,0.5773l-1.3235 2.5975c-0.2152,0.4224 -0.4361,0.7533 -0.6613,0.9933 -0.2271,0.2407 -0.508,0.4095 -0.8457,0.5066 -0.289,0.0824 -0.5851,0.0979 -0.8876,0.0482 -0.3032,-0.0484 -0.6285,-0.1619 -0.9768,-0.3393 -0.4149,-0.2114 -0.7489,-0.4386 -1.0039,-0.681 -0.2537,-0.2417 -0.4266,-0.5056 -0.5209,-0.7896 -0.0932,-0.2835 -0.1085,-0.5953 -0.0485,-0.9337 0.0612,-0.3378 0.196,-0.711 0.4035,-1.1184zm3.2537 -2.9077c-0.1055,-0.0538 -0.1826,-0.139 -0.229,-0.2561 -0.0471,-0.1158 -0.0379,-0.2394 0.0268,-0.3664 0.0628,-0.1232 0.1536,-0.2021 0.275,-0.2383 0.1195,-0.0357 0.2363,-0.0254 0.3494,0.0322 0.1107,0.0564 0.1895,0.1409 0.2372,0.2524 0.0484,0.1134 0.0367,0.2388 -0.0331,0.3758 -0.0647,0.127 -0.1581,0.2077 -0.2795,0.2377 -0.1208,0.0319 -0.2361,0.0191 -0.3468,-0.0373zm1.858 -0.097c0.0691,0.0352 0.1261,0.0881 0.1742,0.1585 0.048,0.0703 0.0733,0.1482 0.0758,0.2334 0.0025,0.0852 -0.0132,0.1628 -0.0497,0.2344 -0.0647,0.127 -0.1568,0.2083 -0.2757,0.2395 -0.1183,0.0333 -0.2336,0.0204 -0.3468,-0.0373 -0.1082,-0.0551 -0.1863,-0.1408 -0.2328,-0.258 -0.0471,-0.1158 -0.038,-0.2394 0.0267,-0.3664 0.0564,-0.1106 0.1472,-0.1862 0.2738,-0.2264 0.1259,-0.0419 0.2438,-0.0341 0.3545,0.0223zm4.5376 5.6491l-1.4493 1.5541 3.4765 -0.1942c0.1674,-0.0099 0.3003,-0.0075 0.3985,0.0051 0.0993,0.0134 0.199,0.0659 0.297,0.1573 0.129,0.1203 0.1987,0.2566 0.2079,0.4061 0.0092,0.1494 -0.0372,0.2778 -0.1392,0.3873 -0.1222,0.131 -0.3106,0.1984 -0.566,0.2013l-2.0551 0.0169 -0.4233 2.974c-0.0277,0.2076 -0.0626,0.3795 -0.1048,0.5138 -0.0432,0.1353 -0.1072,0.2473 -0.19,0.3361 -0.0913,0.098 -0.2105,0.1471 -0.3561,0.1482 -0.1449,0 -0.2838,-0.062 -0.4169,-0.1861 -0.1248,-0.1165 -0.202,-0.2386 -0.2304,-0.3654 -0.0294,-0.1257 -0.029,-0.2585 -0.0009,-0.3983 0.028,-0.1398 0.0546,-0.2654 0.0796,-0.3772l0.4616 -2.6218 -1.3911 0.0186 -0.8546 0.9164c-0.1731,0.1857 -0.3434,0.2836 -0.5118,0.2945 -0.1683,0.0108 -0.3191,-0.0468 -0.4512,-0.17 -0.0774,-0.0722 -0.1314,-0.1611 -0.1641,-0.2668 -0.0336,-0.1067 -0.0373,-0.2103 -0.0109,-0.3151 0.023,-0.0827 0.0681,-0.1641 0.1312,-0.2443 0.0631,-0.08 0.161,-0.1912 0.2928,-0.3326l3.0727 -3.2951c0.1684,-0.1806 0.3358,-0.2793 0.4998,-0.296 0.1643,-0.0167 0.3149,0.0389 0.4522,0.1669 0.1341,0.1251 0.2021,0.2715 0.202,0.4392 -0.0001,0.1678 -0.0858,0.3445 -0.2561,0.5271zm0.6466 8.6323c-0.1004,-0.1381 -0.1421,-0.2892 -0.126,-0.4543 0.016,-0.1651 0.1051,-0.3066 0.2649,-0.4227 0.137,-0.0995 0.2883,-0.1362 0.4561,-0.1116 0.1679,0.0245 0.3032,0.1076 0.4052,0.248 0.102,0.1404 0.1412,0.295 0.1163,0.4649 -0.0249,0.1698 -0.1068,0.3043 -0.2461,0.4055 -0.1575,0.1144 -0.3176,0.1558 -0.48,0.122 -0.1623,-0.0338 -0.2926,-0.1171 -0.3904,-0.2518z"/>
   <path id="_278172432" class="fil3" d="M18.3775 55.6476l3.3306 -1.4909 -3.7768 0.666c-0.209,0.0368 -0.374,0.0173 -0.4948,-0.0573 -0.1209,-0.0745 -0.1949,-0.1889 -0.222,-0.343 -0.0266,-0.1504 0.0043,-0.2805 0.0907,-0.3943 0.0866,-0.1125 0.2348,-0.1872 0.4464,-0.2245l4.3284 -0.7632c0.2394,-0.0422 0.4109,-0.0081 0.5168,0.1006 0.1049,0.1102 0.1765,0.271 0.2137,0.4824l0.0607 0.344c0.0364,0.2063 0.0436,0.3588 0.0232,0.4595 -0.0205,0.0995 -0.0758,0.1801 -0.1648,0.2418 -0.0889,0.0617 -0.2379,0.1405 -0.4469,0.2364l-2.8571 1.3235 3.1374 0.2663c0.2292,0.0187 0.3962,0.0417 0.5008,0.0693 0.1047,0.0275 0.1843,0.0844 0.2378,0.1721 0.0534,0.0866 0.099,0.2335 0.1354,0.4398l0.0604 0.3427c0.0373,0.2114 0.025,0.3869 -0.0358,0.5264 -0.0624,0.1383 -0.2119,0.2291 -0.4513,0.2713l-4.3284 0.7632c-0.209,0.0369 -0.374,0.0174 -0.4948,-0.0572 -0.1208,-0.0746 -0.195,-0.1901 -0.2227,-0.3468 -0.026,-0.1479 0.005,-0.2768 0.0927,-0.3908 0.0878,-0.1126 0.2361,-0.1874 0.4451,-0.2243l3.7768 -0.6659 -3.6396 -0.2619c-0.2369,-0.0173 -0.4108,-0.0352 -0.5228,-0.0522 -0.112,-0.0171 -0.2207,-0.0675 -0.3244,-0.149 -0.105,-0.0813 -0.1719,-0.2074 -0.2022,-0.3794 -0.0229,-0.13 -0.014,-0.2431 0.0261,-0.3435 0.0404,-0.099 0.0993,-0.1816 0.1771,-0.2466 0.0792,-0.0652 0.1678,-0.1215 0.2686,-0.1682 0.1007,-0.0466 0.2064,-0.0955 0.3157,-0.1463zm6.0461 6.8344l-0.9085 -2.3667 -1.274 0.489 0.8367 2.1797c0.0616,0.1605 0.0713,0.2939 0.0302,0.3998 -0.0423,0.1063 -0.1212,0.1824 -0.2396,0.2278 -0.1183,0.0454 -0.2286,0.0434 -0.3331,-0.0052 -0.1038,-0.0502 -0.1876,-0.1566 -0.2497,-0.3184l-0.8367 -2.1796 -1.4756 0.5665 0.9396 2.4476c0.0635,0.1654 0.0726,0.3046 0.0285,0.4172 -0.0449,0.1142 -0.1305,0.1942 -0.2573,0.2428 -0.1232,0.0473 -0.2379,0.0442 -0.3477,-0.0106 -0.108,-0.0541 -0.1944,-0.1636 -0.2579,-0.3291l-1.0958 -2.8546c-0.0876,-0.2282 -0.1004,-0.4131 -0.0375,-0.5524 0.063,-0.139 0.2082,-0.2517 0.434,-0.3383l3.8992 -1.4968c0.1509,-0.058 0.2829,-0.0823 0.3955,-0.0742 0.1125,0.008 0.2094,0.0512 0.2895,0.1299 0.0802,0.0787 0.1487,0.1924 0.2057,0.3409l1.0647 2.7737c0.0644,0.1679 0.0748,0.3067 0.0321,0.4158 -0.0438,0.1097 -0.1245,0.1878 -0.2453,0.2342 -0.1232,0.0473 -0.2368,0.0437 -0.3427,-0.0085 -0.1047,-0.0525 -0.1899,-0.1626 -0.2543,-0.3305zm1.5388 2.0957l-1.6303 3.5689 2.8027 -1.7513c0.182,-0.1138 0.3428,-0.1593 0.4825,-0.1383 0.1396,0.021 0.2516,0.0975 0.3352,0.2313 0.0857,0.1371 0.1079,0.2728 0.0669,0.4097 -0.0418,0.1359 -0.1542,0.2611 -0.3363,0.3749l-3.7054 2.3153c-0.4135,0.2585 -0.7266,0.2162 -0.9412,-0.1272 -0.0534,-0.0855 -0.0894,-0.1699 -0.1073,-0.2548 -0.0184,-0.083 -0.0193,-0.1724 -0.0032,-0.2663 0.0155,-0.0921 0.0443,-0.1878 0.0833,-0.2839 0.0391,-0.0961 0.0804,-0.1936 0.1238,-0.2925l1.6255 -3.5034 -2.7599 1.7246c-0.1799,0.1124 -0.3419,0.1557 -0.4861,0.1299 -0.1443,-0.0257 -0.2575,-0.1045 -0.3391,-0.235 -0.0843,-0.1349 -0.1061,-0.2723 -0.0636,-0.4117 0.0425,-0.1395 0.1532,-0.265 0.3309,-0.376l3.6341 -2.2709c0.1547,-0.0967 0.2863,-0.1545 0.3953,-0.1753 0.1218,-0.0198 0.2427,-0.0022 0.363,0.0537 0.1193,0.0567 0.2138,0.1395 0.2823,0.2491 0.0535,0.0856 0.0844,0.167 0.0954,0.2455 0.011,0.0786 0.0062,0.1563 -0.0122,0.2319 -0.0183,0.0755 -0.0499,0.1593 -0.0954,0.2548 -0.0445,0.0949 -0.0908,0.194 -0.1409,0.297zm4.5665 6.2343l-1.729 -1.8541 -0.998 0.9307 1.5923 1.7075c0.1173,0.1258 0.1762,0.2459 0.1778,0.3594 0.0006,0.1144 -0.0441,0.2145 -0.1368,0.3009 -0.0927,0.0865 -0.1957,0.1259 -0.3108,0.12 -0.1151,-0.0077 -0.2326,-0.0749 -0.3508,-0.2016l-1.5922 -1.7075 -1.156 1.0779 1.7881 1.9175c0.1208,0.1296 0.1814,0.2552 0.1827,0.3761 0.0011,0.1227 -0.0483,0.2289 -0.1476,0.3216 -0.0965,0.09 -0.2041,0.1301 -0.3263,0.1204 -0.1205,-0.0098 -0.2417,-0.0789 -0.3625,-0.2085l-2.0854 -2.2363c-0.1667,-0.1788 -0.2478,-0.3454 -0.2416,-0.4981 0.0062,-0.1526 0.0987,-0.3114 0.2756,-0.4763l3.0546 -2.8485c0.1182,-0.1102 0.2315,-0.1822 0.3389,-0.2169 0.1073,-0.0347 0.2133,-0.031 0.3171,0.0119 0.1038,0.043 0.2099,0.1228 0.3184,0.2391l2.0262 2.1729c0.1226,0.1315 0.1842,0.2563 0.1856,0.3735 0.0005,0.1181 -0.0452,0.2208 -0.1398,0.309 -0.0965,0.09 -0.2031,0.1293 -0.3209,0.1206 -0.1168,-0.0096 -0.237,-0.0797 -0.3596,-0.2112zm3.5741 2.9394l-1.723 -1.3953 -0.8945 1.1048 1.4404 1.1664c0.1327,0.1074 0.2088,0.219 0.2262,0.3312 0.0164,0.1132 -0.0147,0.2195 -0.0962,0.3201 -0.0813,0.1005 -0.1788,0.153 -0.2923,0.1576 -0.1154,0.0047 -0.2385,-0.0467 -0.3692,-0.1525l-1.4405 -1.1665 -1.1518 1.4224c-0.1457,0.18 -0.296,0.2812 -0.4482,0.3028 -0.1523,0.0215 -0.2918,-0.0199 -0.4195,-0.1233 -0.1287,-0.1042 -0.1984,-0.2339 -0.2082,-0.3882 -0.0098,-0.1544 0.0573,-0.3215 0.2014,-0.4994l2.6903 -3.3222c0.1017,-0.1257 0.2038,-0.2128 0.3053,-0.2621 0.1015,-0.0493 0.207,-0.0603 0.3158,-0.0322 0.1087,0.028 0.2248,0.0922 0.3485,0.1923l2.0617 1.6696c0.1397,0.1131 0.218,0.2281 0.2357,0.344 0.0168,0.1168 -0.014,0.2249 -0.0955,0.3254 -0.083,0.1025 -0.1831,0.1563 -0.3009,0.1641 -0.117,0.0068 -0.2458,-0.0459 -0.3855,-0.159zm4.0505 2.1924l-2.2588 -1.1509 -0.6195 1.2159 2.0802 1.0599c0.1533,0.0781 0.2497,0.1708 0.29,0.277 0.0397,0.1073 0.0319,0.2166 -0.0256,0.3295 -0.0575,0.1129 -0.1408,0.1852 -0.251,0.2191 -0.1108,0.0321 -0.2442,0.0091 -0.3986,-0.0696l-2.0802 -1.0599 -0.7176 1.4083 2.336 1.1903c0.1579,0.0804 0.2578,0.1778 0.3004,0.291 0.043,0.1148 0.0329,0.2316 -0.0287,0.3526 -0.06,0.1176 -0.1473,0.192 -0.2655,0.2247 -0.1166,0.0321 -0.254,0.0085 -0.4119,-0.0719l-2.7245 -1.3882c-0.2178,-0.111 -0.3511,-0.2398 -0.3974,-0.3854 -0.0463,-0.1455 -0.0138,-0.3263 0.0961,-0.5419l1.8961 -3.7213c0.0734,-0.1441 0.1552,-0.2505 0.2443,-0.3198 0.089,-0.0694 0.1899,-0.1021 0.3021,-0.0973 0.1122,0.0049 0.2392,0.0436 0.3809,0.1158l2.6472 1.3488c0.1602,0.0817 0.2608,0.1779 0.3021,0.2875 0.0409,0.1108 0.0331,0.2229 -0.0256,0.3382 -0.0599,0.1176 -0.1467,0.191 -0.2603,0.2231 -0.113,0.0309 -0.25,0.0062 -0.4102,-0.0755zm3.8718 6.3201l-1.6326 -0.4681c-0.2349,-0.0674 -0.3879,-0.1678 -0.4582,-0.3024 -0.0705,-0.1345 -0.0729,-0.3182 -0.007,-0.5482l1.1513 -4.0148c0.0673,-0.235 0.1668,-0.3895 0.2996,-0.4632 0.1327,-0.0735 0.3155,-0.0776 0.5456,-0.0116l1.7307 0.4962c0.2549,0.0731 0.4704,0.1524 0.6493,0.2373 0.1776,0.0845 0.3279,0.1936 0.4502,0.3256 0.105,0.1122 0.1883,0.2397 0.2534,0.3834 0.0641,0.1422 0.1008,0.2914 0.1118,0.4452 0.0107,0.1551 -0.0052,0.3093 -0.0498,0.4647 -0.1533,0.5347 -0.533,0.8498 -1.1386,0.9439 0.6387,0.4239 0.8646,0.9597 0.6792,1.6062 -0.0856,0.2984 -0.2397,0.5448 -0.4611,0.7398 -0.2217,0.1961 -0.4787,0.3135 -0.7714,0.3533 -0.1821,0.0204 -0.3825,0.0155 -0.6017,-0.0178 -0.2196,-0.032 -0.4697,-0.0889 -0.7507,-0.1695zm0.599 -2.3942l-1.1252 -0.3227 -0.4471 1.5592 1.1613 0.333c0.7311,0.2096 1.1722,0.0508 1.3234,-0.4764 0.0774,-0.2698 0.0388,-0.4921 -0.1152,-0.6681 -0.1557,-0.1752 -0.4204,-0.317 -0.7972,-0.425zm-0.5066 -2.48l-0.3961 1.3814 0.991 0.2841c0.2685,0.077 0.4849,0.1109 0.6462,0.1019 0.1613,-0.0089 0.301,-0.0738 0.4203,-0.1943 0.0902,-0.0845 0.1529,-0.1903 0.1893,-0.3171 0.0774,-0.2698 0.033,-0.4763 -0.1332,-0.6195 -0.1674,-0.1435 -0.4468,-0.2721 -0.8397,-0.3847l-0.8778 -0.2518zm6.8168 5.1852l-0.2035 -0.7177 -2.2498 -0.1968 -0.3262 0.6869c-0.1286,0.2679 -0.2326,0.4471 -0.3145,0.5373 -0.0806,0.0903 -0.2047,0.1287 -0.371,0.1142 -0.1404,-0.0123 -0.2608,-0.0747 -0.3601,-0.1873 -0.0992,-0.1126 -0.1431,-0.2346 -0.1316,-0.366 0.0065,-0.0747 0.0263,-0.1522 0.0578,-0.2299 0.0328,-0.079 0.0839,-0.1874 0.1544,-0.3254l1.7305 -3.4699c0.049,-0.0996 0.1088,-0.219 0.1781,-0.3583 0.0694,-0.1407 0.1392,-0.2554 0.212,-0.3451 0.0728,-0.0897 0.1645,-0.1595 0.2741,-0.2097 0.1096,-0.0501 0.241,-0.0685 0.3943,-0.0551 0.156,0.0136 0.2835,0.0547 0.3827,0.1231 0.0991,0.0684 0.1776,0.1519 0.2339,0.2503 0.055,0.0983 0.1003,0.2036 0.1361,0.3144 0.0344,0.1108 0.0774,0.2586 0.1301,0.4424l1.1332 3.6984c0.0896,0.2819 0.129,0.484 0.1182,0.6076 -0.0111,0.1276 -0.0755,0.2401 -0.1918,0.3377 -0.1163,0.0976 -0.2499,0.1404 -0.4006,0.1272 -0.0877,-0.0076 -0.1624,-0.0297 -0.2227,-0.0674 -0.0604,-0.0365 -0.1095,-0.0837 -0.1473,-0.1415 -0.0377,-0.0578 -0.0768,-0.1457 -0.116,-0.262 -0.0391,-0.1165 -0.0731,-0.2181 -0.1003,-0.3074zm-2.0859 -1.7302l1.6546 0.1447 -0.6352 -2.3564 -1.0194 2.2117zm5.2564 -2.7152l0.3524 4.028 2.2729 -0.1989c0.1804,-0.0157 0.3234,0.0158 0.4278,0.0963 0.1056,0.0791 0.163,0.1857 0.1746,0.3184 0.012,0.1366 -0.0261,0.2503 -0.114,0.3437 -0.088,0.0921 -0.2248,0.1469 -0.4078,0.1629l-2.7071 0.2369c-0.2436,0.0213 -0.4249,-0.0174 -0.5413,-0.1163 -0.1164,-0.0988 -0.1845,-0.2694 -0.2056,-0.5104l-0.3729 -4.2625c-0.0198,-0.2256 0.0169,-0.4001 0.1088,-0.5224 0.0919,-0.1223 0.2209,-0.1908 0.387,-0.2053 0.1676,-0.0147 0.309,0.0289 0.4232,0.1318 0.1141,0.1029 0.182,0.2698 0.202,0.4978zm7.7348 1.2662l-0.9687 0.3525 0.538 1.4781c0.0769,0.2114 0.085,0.3888 0.0252,0.5345 -0.0599,0.1456 -0.1664,0.2463 -0.3183,0.3016 -0.1581,0.0576 -0.3064,0.051 -0.4429,-0.0218 -0.1366,-0.0728 -0.2433,-0.2143 -0.3189,-0.4222l-1.4648 -4.0243c-0.0845,-0.2322 -0.0916,-0.4182 -0.0208,-0.5567 0.0706,-0.1387 0.2215,-0.25 0.4548,-0.3349l1.3564 -0.4937c0.4012,-0.146 0.7197,-0.2276 0.9587,-0.2443 0.2355,-0.0184 0.4561,0.0129 0.6617,0.0936 0.206,0.0819 0.3849,0.2067 0.5377,0.3769 0.1541,0.1697 0.2759,0.38 0.3666,0.6291 0.1938,0.5324 0.1761,0.9944 -0.0508,1.3881 -0.2287,0.393 -0.666,0.7076 -1.3139,0.9435zm-1.1275 -2.2999l-0.7122 0.2592 0.5808 1.5959 0.7122 -0.2592c0.2492,-0.0907 0.4478,-0.1918 0.5965,-0.3052 0.1475,-0.1129 0.2437,-0.2456 0.2895,-0.3958 0.0441,-0.1509 0.0313,-0.3225 -0.0386,-0.5145 -0.0841,-0.2309 -0.2202,-0.3933 -0.4082,-0.4901 -0.2082,-0.0991 -0.5484,-0.062 -1.02,0.1097zm4.0019 1.2089l-1.3764 -2.2906c-0.1166,-0.1941 -0.1602,-0.367 -0.1312,-0.5172 0.029,-0.1502 0.1149,-0.2683 0.258,-0.3543 0.1485,-0.0892 0.2965,-0.1117 0.4428,-0.0668 0.1462,0.045 0.2784,0.1646 0.395,0.3587l1.4077 2.3427c0.1598,0.2661 0.3236,0.471 0.4908,0.6135 0.166,0.1432 0.3546,0.2185 0.5658,0.2259 0.2112,0.0074 0.4523,-0.0711 0.725,-0.235 0.3769,-0.2264 0.5831,-0.4861 0.6189,-0.7807 0.0357,-0.2946 -0.0692,-0.645 -0.3137,-1.0519l-1.419 -2.3616c-0.1178,-0.1962 -0.1633,-0.3697 -0.1347,-0.5181 0.0285,-0.1484 0.1162,-0.2661 0.2615,-0.3534 0.1441,-0.0865 0.2903,-0.1094 0.4381,-0.067 0.1478,0.0425 0.2818,0.1627 0.3997,0.3589l1.3764 2.2906c0.2238,0.3726 0.3737,0.705 0.4509,0.9967 0.0767,0.2933 0.0716,0.5938 -0.017,0.9034 -0.0763,0.2647 -0.2081,0.5024 -0.3937,0.7135 -0.1849,0.2121 -0.4312,0.4099 -0.7383,0.5945 -0.3659,0.2198 -0.7047,0.3691 -1.0171,0.4496 -0.3111,0.0799 -0.6001,0.086 -0.8668,0.0215 -0.2656,-0.0653 -0.5155,-0.2049 -0.7494,-0.416 -0.2328,-0.2117 -0.4575,-0.4977 -0.6733,-0.8569zm-0.68 -3.9419c-0.0932,0.0559 -0.1967,0.0744 -0.3103,0.0536 -0.1129,-0.0196 -0.2046,-0.0868 -0.2719,-0.1987 -0.0653,-0.1087 -0.0824,-0.2176 -0.0516,-0.3297 0.0303,-0.1103 0.095,-0.1959 0.1948,-0.2559 0.0975,-0.0586 0.2016,-0.0788 0.3114,-0.0618 0.1115,0.0174 0.2035,0.0875 0.2761,0.2084 0.0672,0.1119 0.0846,0.2237 0.049,0.3326 -0.0339,0.1094 -0.1,0.1929 -0.1975,0.2515zm0.8271 -1.4915c0.061,-0.0366 0.1297,-0.0553 0.2079,-0.0584 0.078,-0.0031 0.1509,0.015 0.2183,0.0544 0.0675,0.0395 0.12,0.0893 0.158,0.1526 0.0673,0.1119 0.0858,0.2231 0.0523,0.3307 -0.0316,0.108 -0.0977,0.1914 -0.1975,0.2514 -0.0953,0.0573 -0.2,0.0764 -0.3136,0.0557 -0.1129,-0.0197 -0.2045,-0.0869 -0.2718,-0.1988 -0.0586,-0.0976 -0.0733,-0.2049 -0.0431,-0.3227 0.0286,-0.1183 0.092,-0.2062 0.1895,-0.2649zm4.1182 -0.3204l1.3034 1.4477 0.1004 -3.1903c0.0044,-0.1536 0.0172,-0.2748 0.0364,-0.3636 0.0203,-0.0895 0.0761,-0.1764 0.1674,-0.2586 0.1202,-0.1082 0.2503,-0.1609 0.3874,-0.1574 0.1372,0.0035 0.2508,0.0563 0.3425,0.1582 0.1099,0.122 0.1565,0.2993 0.1388,0.5329l-0.1488 1.878 2.6819 0.6241c0.1875,0.0419 0.3417,0.0876 0.4609,0.1369 0.1201,0.0502 0.2173,0.1176 0.2917,0.2002 0.0823,0.0913 0.1176,0.2041 0.1069,0.3372 -0.0115,0.1322 -0.0792,0.2541 -0.2033,0.3657 -0.1163,0.1048 -0.2339,0.1654 -0.352,0.1812 -0.1171,0.0168 -0.2384,0.0058 -0.3638,-0.0309 -0.1254,-0.0369 -0.238,-0.0711 -0.3381,-0.1029l-2.3573 -0.631 -0.0941 1.2719 0.7685 0.8535c0.1558,0.173 0.2315,0.3363 0.228,0.491 -0.0035,0.1545 -0.0683,0.2877 -0.1912,0.3984 -0.0721,0.0649 -0.1577,0.1072 -0.2568,0.1285 -0.1001,0.0223 -0.1951,0.0173 -0.2887,-0.0151 -0.0736,-0.0277 -0.1444,-0.0753 -0.2125,-0.1393 -0.068,-0.064 -0.1618,-0.1624 -0.2804,-0.2941l-2.7635 -3.0692c-0.1515,-0.1683 -0.2282,-0.3288 -0.2304,-0.48 -0.0021,-0.1513 0.0607,-0.2845 0.1886,-0.3996 0.1249,-0.1125 0.264,-0.1629 0.4172,-0.1494 0.1532,0.0135 0.3077,0.1059 0.4609,0.276zm6.6324 -0.2139l-3.353 -2.8136c-0.1735,-0.1455 -0.271,-0.2948 -0.2916,-0.4473 -0.0207,-0.1524 0.0221,-0.2921 0.1277,-0.4179 0.1081,-0.1288 0.2389,-0.198 0.3924,-0.206 0.1535,-0.008 0.3195,0.0621 0.4948,0.2092l3.3531 2.8135c0.1753,0.1472 0.2731,0.2984 0.2929,0.4518 0.0198,0.1535 -0.0247,0.2951 -0.1328,0.4238 -0.1039,0.1239 -0.2331,0.1894 -0.3887,0.1957 -0.1555,0.0063 -0.3204,-0.0629 -0.4948,-0.2092zm4.7054 -5.4257l-0.8492 1.4709c-0.1222,0.2116 -0.2565,0.3358 -0.4041,0.3714 -0.1476,0.0358 -0.3264,-0.0062 -0.5337,-0.1259l-3.617 -2.0883c-0.2118,-0.1222 -0.3376,-0.2561 -0.3769,-0.4028 -0.0393,-0.1465 0.001,-0.3249 0.1206,-0.5321l0.9003 -1.5593c0.1326,-0.2297 0.2616,-0.4195 0.3873,-0.5726 0.1249,-0.1519 0.2671,-0.2714 0.4248,-0.358 0.1343,-0.0748 0.2781,-0.1248 0.4333,-0.1532 0.1535,-0.0278 0.3071,-0.0273 0.459,-0.0008 0.1531,0.0272 0.2989,0.0799 0.4389,0.1608 0.4817,0.2781 0.6956,0.7227 0.6404,1.3331 0.5659,-0.5172 1.1403,-0.6068 1.7228,-0.2705 0.2688,0.1552 0.4707,0.3644 0.6063,0.6264 0.1366,0.2626 0.1883,0.5404 0.1562,0.834 -0.0243,0.1816 -0.0776,0.3749 -0.1629,0.5795 -0.0841,0.2054 -0.1999,0.4343 -0.3461,0.6874zm-2.1781 -1.1605l-0.5853 1.0138 1.4047 0.811 0.604 -1.0462c0.3803,-0.6587 0.3329,-1.1251 -0.1421,-1.3994 -0.2431,-0.1403 -0.468,-0.1567 -0.6761,-0.0498 -0.2077,0.1086 -0.4093,0.3312 -0.6052,0.6706zm-2.5289 -0.1083l1.2445 0.7185 0.5155 -0.8928c0.1397,-0.242 0.2248,-0.4437 0.2552,-0.6024 0.0304,-0.1587 0.0012,-0.3099 -0.0869,-0.4548 -0.0601,-0.108 -0.1477,-0.1944 -0.2619,-0.2604 -0.2431,-0.1403 -0.4542,-0.1472 -0.6333,-0.0206 -0.1798,0.1277 -0.3721,0.3677 -0.5765,0.7216l-0.4566 0.7909zm7.0545 -5.3064l-0.7459 -0.0022 -0.8093 2.1084 0.5703 0.5029c0.2221,0.1975 0.3657,0.3469 0.4299,0.4504 0.0646,0.1024 0.0673,0.2323 0.0075,0.3881 -0.0505,0.1316 -0.1438,0.2302 -0.2793,0.2946 -0.1356,0.0643 -0.265,0.0729 -0.3881,0.0256 -0.07,-0.0269 -0.139,-0.0673 -0.2051,-0.119 -0.0668,-0.0533 -0.157,-0.1323 -0.2702,-0.2381l-2.8585 -2.6198c-0.0822,-0.0746 -0.1806,-0.165 -0.2953,-0.27 -0.1161,-0.1055 -0.2071,-0.2042 -0.2733,-0.2989 -0.0661,-0.0947 -0.108,-0.2021 -0.126,-0.3213 -0.018,-0.1192 0.0005,-0.2506 0.0557,-0.3942 0.0561,-0.1462 0.1307,-0.2575 0.2238,-0.334 0.0931,-0.0764 0.1949,-0.1288 0.305,-0.1558 0.1098,-0.0258 0.2234,-0.0404 0.3398,-0.0442 0.116,-0.0025 0.2699,-0.0031 0.4611,-0.0031l3.8675 -0.0699c0.2956,-0.0084 0.5008,0.0094 0.6166,0.0538 0.1196,0.0459 0.2101,0.1388 0.2717,0.2775 0.0619,0.1387 0.0662,0.279 0.012,0.4202 -0.0316,0.0822 -0.0734,0.1478 -0.1263,0.1955 -0.0517,0.0479 -0.1106,0.0822 -0.1766,0.1026 -0.0659,0.0203 -0.1612,0.0337 -0.2838,0.0393 -0.1227,0.0055 -0.2298,0.0101 -0.3232,0.0116zm-2.238 1.5282l0.5952 -1.5506 -2.4403 -0.0389 1.8451 1.5895zm-1.1953 -5.7062l3.982 0.7022 0.3962 -2.247c0.0314,-0.1783 0.0989,-0.3083 0.2037,-0.3883 0.1037,-0.0815 0.2215,-0.1094 0.3527,-0.0862 0.135,0.0238 0.2351,0.09 0.3024,0.1991 0.0662,0.1088 0.0838,0.2551 0.0519,0.436l-0.4719 2.6762c-0.0424,0.2408 -0.1267,0.4059 -0.2524,0.4928 -0.1256,0.0868 -0.308,0.1085 -0.5462,0.0665l-4.2138 -0.7431c-0.223,-0.0393 -0.3821,-0.1198 -0.4764,-0.2402 -0.0944,-0.1204 -0.1271,-0.2628 -0.0982,-0.4271 0.0292,-0.1656 0.1079,-0.291 0.2369,-0.3746 0.129,-0.0836 0.3077,-0.106 0.5331,-0.0663zm5.637 -3.8643c-0.011,0.1561 -0.0706,0.2867 -0.1792,0.3932 -0.1086,0.1065 -0.2545,0.1534 -0.4352,0.1408 -0.1548,-0.0108 -0.2826,-0.0743 -0.3861,-0.1904 -0.1033,-0.1162 -0.1494,-0.2542 -0.1383,-0.4129 0.0111,-0.1588 0.0748,-0.2904 0.1923,-0.395 0.1175,-0.1047 0.2543,-0.1508 0.4117,-0.1398 0.1781,0.0124 0.3148,0.0777 0.4089,0.1972 0.0941,0.1193 0.1365,0.2545 0.1259,0.4069z"/>
   <g>
    <circle id="_278172336" class="fil0 str0" cx="50" cy="50" r="20.373"/>
    <line id="_278172240" class="fil2 str0" x1="29.627" y1="50" x2="70.373" y2= "50" />
    <line id="_278172144" class="fil2 str0" x1="50" y1="29.627" x2="50" y2= "70.373" />
    <path id="_278172048" class="fil2 str0" d="M32.4524 39.6428c0,0 15.2683,9.6562 35.2596,0.2832"/>
    <path id="_279629792" class="fil2 str0" d="M67.9154 59.7086c0,0 -15.9446,-9.5692 -35.9359,-0.1962"/>
    <g>
     <path id="_279629624" class="fil3" d="M50 66.065l0 0.762 0 0 -0.2166 0.0045 -0.2135 0.0134 -0.2104 0.0219 -0.2065 0.0304 -0.2028 0.0387 -0.199 0.0465 -0.1943 0.0541 -0.1897 0.0617 -0.1849 0.0688 -0.1798 0.0759 -0.1742 0.0824 -0.1684 0.089 -0.1624 0.0952 -0.1563 0.1011 -0.1497 0.1069 -0.143 0.1123 -0.1359 0.1173 -0.1285 0.1223 -0.1212 0.1269 -0.1132 0.1313 -0.1055 0.1355 -0.0973 0.1393 -0.0888 0.1429 -0.0803 0.1463 -0.0716 0.1496 -0.0627 0.1526 -0.0535 0.1553 -0.0443 0.1582 -0.0349 0.1606 -0.0251 0.1631 -0.0153 0.1655 -0.0052 0.168 -0.7584 0 0.0066 -0.2148 0.0195 -0.2121 0.0323 -0.2091 0.0445 -0.2056 0.0565 -0.2018 0.0681 -0.1975 0.0793 -0.193 0.09 -0.1882 0.1005 -0.1831 0.1106 -0.1777 0.1201 -0.1721 0.1293 -0.1663 0.1384 -0.1603 0.147 -0.1541 0.1551 -0.1475 0.1631 -0.1409 0.1706 -0.1339 0.1777 -0.1269 0.1849 -0.1197 0.1914 -0.1122 0.198 -0.1044 0.2038 -0.0966 0.2096 -0.0883 0.2149 -0.0802 0.2203 -0.0715 0.2251 -0.0627 0.2296 -0.0537 0.2338 -0.0445 0.2381 -0.035 0.2416 -0.0253 0.2449 -0.0154 0.248 -0.0051 0 0zm4.8932 4.0995l-0.7584 0 -0.0052 -0.168 -0.0153 -0.1655 -0.0251 -0.1631 -0.0349 -0.1606 -0.0443 -0.1582 -0.0535 -0.1553 -0.0627 -0.1526 -0.0716 -0.1496 -0.0803 -0.1463 -0.0888 -0.1429 -0.0973 -0.1393 -0.1055 -0.1355 -0.1132 -0.1313 -0.1212 -0.1269 -0.1285 -0.1223 -0.1359 -0.1173 -0.143 -0.1123 -0.1497 -0.1069 -0.1563 -0.1011 -0.1624 -0.0952 -0.1684 -0.089 -0.1742 -0.0824 -0.1798 -0.0759 -0.1849 -0.0688 -0.1897 -0.0617 -0.1943 -0.0541 -0.199 -0.0465 -0.2028 -0.0387 -0.2065 -0.0304 -0.2104 -0.0219 -0.2135 -0.0134 -0.2166 -0.0045 0 -0.762 0.248 0.0051 0.2449 0.0154 0.2416 0.0253 0.2381 0.035 0.2338 0.0445 0.2296 0.0537 0.2251 0.0627 0.2203 0.0715 0.2149 0.0802 0.2096 0.0883 0.2038 0.0966 0.198 0.1044 0.1914 0.1122 0.1849 0.1197 0.1777 0.1269 0.1706 0.1339 0.1631 0.1409 0.1551 0.1475 0.147 0.1541 0.1384 0.1603 0.1293 0.1663 0.1201 0.1721 0.1106 0.1777 0.1005 0.1831 0.09 0.1882 0.0793 0.193 0.0681 0.1975 0.0565 0.2018 0.0445 0.2056 0.0323 0.2091 0.0195 0.2121 0.0066 0.2148z"/>
    </g>
    <path id="_279629528" class="fil2 str0" d="M44.6839 30.3276c0,0 4.9185,5.0363 10.698,0.0178"/>
    <path id="_279629432" class="fil2 str0" d="M36.5695 65.3197c0,0 10.7888,-8.5569 27.0831,-0.1977"/>
    <path id="_279629336" class="fil2 str0" d="M63.0194 34.3291c0,0 -11.8055,7.6497 -25.981,-0.0478"/>
    <path id="_279629240" class="fil2 str0" d="M51.4283 66.636c0,0 12.7453,-14.3345 1.1187,-34.5356"/>
    <path id="_279629144" class="fil2 str0" d="M48.5525 32.4055c0,0 -12.5593,13.4557 -0.8519,34.5584"/>
    <path id="_279629048" class="fil2 str0" d="M45.9732 31.3251c0,0 -23.7511,17.7943 0.1004,37.0035"/>
    <path id="_279628952" class="fil2 str0" d="M53.9669 31.3934c0,0 24.1161,18.9365 -0.9311,36.0191"/>
    <path id="_275945400" class="fil4 str1" d="M34.3058 59.7952l-0.1068 0.1512c-0.4078,0.5777 0.3099,0.6583 0.8098,1.0613l0.0604 0.033c0.7983,0.4361 0.0829,1.8335 0.893,2.249 0.1402,0.0718 0.0279,0.1475 0.6171,0.3808 0.3899,0.1544 1.4353,0.2549 1.3257,-0.1711l0.052 -0.0774c0.4721,-0.7043 0.5652,-1.4579 0.6303,-1.5431 0.064,-0.0838 0.0901,-0.7534 0.0288,-0.875 -0.2153,-0.427 -1.4227,-0.3435 -1.7637,-0.5718 -0.3975,-0.2661 -2.1648,-1.5841 -2.4502,-0.7748 -0.0036,0.0101 -0.0325,0.0474 -0.0964,0.1379z"/>
    <path id="_278173432" class="fil4 str2" d="M39.2961 67.2833l-0.0698 -0.1498c-0.0682,-0.2604 0.3376,-1.8578 0.7468,-2.1825 1.6856,-1.3366 2.4668,0.8014 3.3682,1.4316 0.2605,0.2859 1.8923,1.544 1.8799,1.7015 -1.0234,0 -0.8332,-0.1288 -1.4412,-0.2036 -0.7863,-0.0968 -0.2542,1.0443 -1.391,1.0443 -0.2944,0 -2.1338,-1.4021 -2.8162,-1.518 -0.012,-0.0019 -0.261,-0.0898 -0.2767,-0.1235z"/>
    <path id="_278173336" class="fil4 str1" d="M52.2645 51.2458c0.5945,-0.665 0.3339,-0.5111 1.159,-1.0238 0.0118,-0.0074 1.8637,-1.0062 2.2475,-1.3078 0.0037,-0.0029 1.6216,-0.161 1.8521,-0.2561 0.6706,-0.2767 1.2938,-0.0069 1.5365,-0.6879 0.6117,-0.9411 2.4851,1.1521 3.0191,1.647 0.262,0.2428 0.6212,1.3676 1.0697,1.8767 0.8288,0.9408 0.0222,1.0104 -0.7635,1.4003 -0.4701,0.2334 -1.2685,1.5178 -1.4307,2.0393 -0.2246,0.7221 -0.5274,0.8257 -0.6832,1.5903 -0.0708,0.3477 -0.0359,0.753 -0.0359,1.1217 -0.8504,0.1589 -0.5644,0.1653 -1.5213,0.1653 -0.4782,0.6989 -1.292,1.0349 -1.5432,1.6206 -0.2388,0.557 -0.9107,0.5582 -1.0337,1.1604 -0.1278,0.6262 -0.199,0.4732 -0.1682,1.2539 0.0221,0.559 -0.2199,1.2237 -0.9261,1.2237 -0.546,0 -1.0188,-0.3245 -1.0886,-0.8929 -0.0713,-0.5809 -0.0212,-1.4208 -0.3581,-1.8937 -0.2927,-0.411 0.8145,-3.2301 1.1406,-3.7372 0.0873,-0.1358 0.0939,-1.7623 -0.1361,-2.0917 -0.0437,-0.0626 -1.1003,-0.8716 -1.4949,-1.4443 -0.0805,-0.1168 -0.6862,-0.9642 -0.6974,-1.0007 -0.0755,-0.0252 -0.3378,-0.5459 -0.1436,-0.7631z"/>
    <path id="_278173240" class="fil4 str1" d="M53.9652 49.9251c0.3429,0.0308 2.2041,-0.8078 1.9589,-1.1351 -0.4036,-0.5386 -3.0486,-1.8532 -3.0645,-2.2244 -0.0129,-0.3002 0.4687,-0.2426 0.328,-1.3891 -0.0418,-0.3402 -0.7266,-0.4832 -0.2892,-1.1821 0.2911,-0.4651 2.3725,-0.0369 3.037,-0.5377l0.0908 -0.0415c0.9283,-0.4248 0.8255,0.0907 0.9317,-1.1822 0.0093,-0.1118 0.144,-0.1611 0.2371,-0.179 1.5309,-0.2943 0.9189,0.495 2.2462,-0.5845 0.8426,-0.6852 0.8102,-1.8446 0.4933,-2.8083l-0.0218 -0.0662c-0.3389,-1.0308 -4.1905,-0.35 -4.1757,-0.6945 0.0293,-0.6848 -0.7276,-1.4898 -0.7276,-2.9435 0,-0.1957 0.0287,-0.4174 -0.0331,-0.5953l-0.0746 -0.0331c-0.2221,-0.0985 -0.5173,-0.1822 -0.7508,-0.2509 -0.129,-0.0137 -1.2325,0.585 -1.3962,0.9454 -0.5512,1.2143 -0.9672,1.0521 -1.1849,1.3905 -0.2666,0.0801 -1.2512,0.5919 -1.2871,1.0239 -0.0379,0.4567 -0.5314,0.8775 -1.0611,0.4271 -0.626,-0.5323 -1.1166,-0.8248 -1.8658,-1.2417 -0.6166,-0.3431 -1.185,-0.3111 -1.6853,0.0553 -0.1565,0.1147 -0.2752,0.2643 -0.5637,0.3156 -0.1743,0.031 -0.6739,-0.5058 -0.9927,-0.6034 -0.0117,-0.0354 -1.2566,-0.5683 -1.7935,-0.033 -0.5895,0.588 -0.2651,0.9121 -0.4497,1.0413 -0.7493,0.5245 -0.2044,-0.0633 -0.8817,0.7994 -0.1982,0.2526 -0.0476,-0.1095 -0.342,0.4546 -0.4129,0.7911 -0.2884,0.8554 -0.0246,1.5298 0.7029,-0.0555 0.6417,0.3118 1.3144,-0.3089 0.0718,-0.0663 0.6638,-0.0055 0.6369,-0.3195 0.6849,0 0.3731,0.2169 1.0914,0.4716 0.5063,0.1795 0.6027,1.2765 1.0253,1.3116 0.4062,0.0337 0.3474,2.2327 0.3004,2.6155 -0.141,1.1488 -0.4801,0.5461 -0.0113,1.9844 0.2301,0.706 0.3964,1.2228 1.2681,1.0942 0.1078,-0.0159 0.2064,-0.4268 0.551,-0.6066 0.311,-0.1623 1.0589,-0.6457 0.8712,0.2759 -0.0335,0.1647 -0.8638,0.1045 -0.6095,0.8713 0.0493,0.0165 0.0252,0.0494 0.1049,0.0907 0.0449,0.2611 1.5221,1.6885 2.3373,1.3862 0.8959,-0.0764 1.2195,-1.4884 1.9707,-0.703l0.0415 0.085c0.1791,0.367 1.0054,0.5482 1.5186,0.8713 0.272,0.1712 0.6867,0.6009 0.9317,0.6229z"/>
    <path id="_278173144" class="fil4 str1" d="M41.1654 31.6316c0.0769,-0.0638 1.6894,-0.8087 1.8385,-0.8087 -0.0208,0.2423 0.2638,0.2657 0.1626,1.0914 -0.0829,0.6761 -0.2199,0.3409 -0.062,1.1396 -0.0146,0.1844 0.2831,0.4113 -0.059,0.9525 -0.4079,0.6453 -0.9607,0.8504 -1.0641,1.4826 -0.0774,0.4735 0.04,0.3387 -0.1653,0.8405 -0.0268,0.1891 -0.7406,0.4063 -0.9431,0.4683 -0.1216,0.3673 -0.7599,-0.296 -0.8787,-0.4678 -0.0395,-0.0571 -0.344,-0.3686 -0.3969,-0.3808 -0.0515,-0.1487 -0.5016,0.0404 -0.9591,-0.1928 -0.0268,-0.0136 -0.2203,-0.0056 -0.2646,-0.0056 -0.2928,0.427 -0.568,0.9356 -0.9837,1.1991 -0.0001,0.0001 -1.8375,0.2528 -1.8937,-0.0747 -0.2168,-0.0371 -0.5069,-0.9753 -0.0439,-1.3021 0.0212,-0.0231 1.4403,-0.9298 1.6976,-1.1481 0.5041,-0.4279 1.02,-0.0223 2.0477,-0.2315 0.8289,-0.1688 0.9765,-0.7995 1.7339,-0.8874 0.6315,-0.0732 0.2265,-1.6684 0.2338,-1.6745z"/>
    <path id="_275945544" class="fil4 str1" d="M54.8938 30.1449l-0.1422 -0.0354c-0.1772,-0.0083 -0.3419,0.2661 -0.4696,0.2835 -0.0041,0.0318 -0.3547,0.8504 -0.5982,0.8902 -0.4945,0.0807 -1.1414,0.2191 -1.4136,0.7417 -0.354,0.6795 0.1973,1.3013 0.6227,1.7387l0.0992 0.102c0.2332,0.2398 0.6092,0.2646 0.9261,0.2316 0,-0.2197 0.1301,-1.0562 0.2315,-1.1576 0.157,-0.157 1.366,-0.0316 1.8838,-0.1503 0.0852,-0.6446 0.0653,-0.2265 0.0675,-0.875 0.0002,-0.0599 0.7376,-0.9745 0.6615,0.9592 -0.0197,0.5001 0.8638,0.5415 1.2568,0.4933 0.8433,-0.1036 0.148,-1.4135 0.1653,-1.8163 0.0246,-0.5753 -2.5559,-1.332 -3.1348,-1.3517 -0.0383,-0.0014 -0.1048,-0.0412 -0.156,-0.0539z"/>
   </g>
  </g>
 </g>
</svg>
